<svg xmlns="http://www.w3.org/2000/svg" version="1.1" xmlns:xlink="http://www.w3.org/1999/xlink" xmlns:svgjs="http://svgjs.dev/svgjs" width="1500" height="1500" viewBox="0 0 1500 1500"><rect width="1500" height="1500" fill="#000000"></rect><g transform="matrix(0.6666666666666666,0,0,0.6666666666666666,249.39393939393938,438.5856950067477)"><svg viewBox="0 0 396 247" data-background-color="#ffffff" preserveAspectRatio="xMidYMid meet" height="935" width="1500" xmlns="http://www.w3.org/2000/svg" xmlns:xlink="http://www.w3.org/1999/xlink"><g id="tight-bounds" transform="matrix(1,0,0,1,0.2400000000000091,-0.09999999999999432)"><svg viewBox="0 0 395.52 247.2" height="247.2" width="395.52"><g><svg></svg></g><g><svg viewBox="0 0 395.52 247.2" height="247.2" width="395.52"><mask id="9d52d4b3-684e-4f4b-9864-037c4bbe7afa"><rect width="640" height="400" fill="white"></rect><g transform="matrix(1,0,0,1,39.55199999999999,88.36990574708085)"><svg viewBox="0 0 316.416 70.46018850583829" height="70.46018850583829" width="316.416"><g><svg viewBox="0 0 316.416 70.46018850583829" height="70.46018850583829" width="316.416"><g><svg viewBox="0 0 316.416 70.46018850583829" height="70.46018850583829" width="316.416"><g><svg viewBox="0 0 316.416 70.46018850583829" height="70.46018850583829" width="316.416"><g id="SvgjsG7783"><svg viewBox="0 0 316.416 70.46018850583829" height="70.46018850583829" width="316.416" id="SvgjsSvg7782"><g><svg viewBox="0 0 316.416 40.837797165879415" height="40.837797165879415" width="316.416"><g transform="matrix(1,0,0,1,0,0)"><svg width="316.416" viewBox="-0.20000000000000018 -42.85 360.86 47.45" height="40.837797165879415" data-palette-color="#1f6133"><path d="M10.5-34.45Q16.55-34.45 19.68-31.75 22.8-29.05 22.8-23.8L22.8-23.8Q22.8-18.2 19.63-15.48 16.45-12.75 10.6-12.75L10.6-12.75 8.35-12.75 8.35 0 3.8 0 3.8-34.45 10.5-34.45ZM10.6-16.35Q14.45-16.35 16.25-17.98 18.05-19.6 18.05-23.75L18.05-23.75Q18.05-27.5 16.23-29.18 14.4-30.85 10.6-30.85L10.6-30.85 8.35-30.85 8.35-16.35 10.6-16.35ZM32.05 0.6Q29.85 0.6 28.52-0.8 27.2-2.2 27.2-4.6L27.2-4.6 27.2-36.95 31.6-37.45 31.6-4.7Q31.6-3.05 33-3.05L33-3.05Q33.65-3.05 34.25-3.3L34.25-3.3 35.25-0.3Q33.8 0.6 32.05 0.6L32.05 0.6ZM54.85-5.6Q54.85-4.2 55.25-3.53 55.65-2.85 56.55-2.45L56.55-2.45 55.6 0.6Q53.75 0.3 52.67-0.58 51.6-1.45 51.15-3.2L51.15-3.2Q49 0.6 44.85 0.6L44.85 0.6Q41.6 0.6 39.67-1.58 37.75-3.75 37.75-7.35L37.75-7.35Q37.75-11.55 40.35-13.78 42.95-16 47.9-16L47.9-16 50.5-16 50.5-18.4Q50.5-21 49.47-22.2 48.45-23.4 46.3-23.4L46.3-23.4Q43.75-23.4 40.35-22.05L40.35-22.05 39.25-25.15Q43.3-26.9 46.85-26.9L46.85-26.9Q50.9-26.9 52.87-24.73 54.85-22.55 54.85-18.6L54.85-18.6 54.85-5.6ZM45.75-2.7Q48.85-2.7 50.5-6.9L50.5-6.9 50.5-13.05 48.4-13.05Q45.25-13.05 43.77-11.7 42.3-10.35 42.3-7.55L42.3-7.55Q42.3-5.15 43.2-3.93 44.1-2.7 45.75-2.7L45.75-2.7ZM72.94-26.9Q75.79-26.9 77.49-24.85 79.19-22.8 79.19-19.35L79.19-19.35 79.19 0 74.79 0 74.79-18.75Q74.79-21.3 74.07-22.38 73.34-23.45 71.89-23.45L71.89-23.45Q69.04-23.45 66.59-18.55L66.59-18.55 66.59 0 62.19 0 62.19-26.35 65.99-26.35 66.34-22.4Q67.64-24.6 69.19-25.75 70.74-26.9 72.94-26.9L72.94-26.9ZM96.24-3.95L97.94-1.2Q95.69 0.6 92.89 0.6L92.89 0.6Q89.94 0.6 88.32-1.15 86.69-2.9 86.69-5.85L86.69-5.85 86.69-22.9 83.14-22.9 83.14-26.35 86.69-26.35 86.69-32.3 91.09-32.85 91.09-26.35 96.19-26.35 95.74-22.9 91.09-22.9 91.09-5.8Q91.09-3.05 93.44-3.05L93.44-3.05Q94.24-3.05 94.84-3.25 95.44-3.45 96.24-3.95L96.24-3.95ZM119.04-34.45Q125.09-34.45 128.21-31.75 131.34-29.05 131.34-23.8L131.34-23.8Q131.34-18.2 128.16-15.48 124.99-12.75 119.14-12.75L119.14-12.75 116.89-12.75 116.89 0 112.34 0 112.34-34.45 119.04-34.45ZM119.14-16.35Q122.99-16.35 124.79-17.98 126.59-19.6 126.59-23.75L126.59-23.75Q126.59-27.5 124.76-29.18 122.94-30.85 119.14-30.85L119.14-30.85 116.89-30.85 116.89-16.35 119.14-16.35ZM151.18-5.6Q151.18-4.2 151.58-3.53 151.98-2.85 152.88-2.45L152.88-2.45 151.93 0.6Q150.08 0.3 149.01-0.58 147.93-1.45 147.48-3.2L147.48-3.2Q145.33 0.6 141.18 0.6L141.18 0.6Q137.93 0.6 136.01-1.58 134.08-3.75 134.08-7.35L134.08-7.35Q134.08-11.55 136.68-13.78 139.28-16 144.23-16L144.23-16 146.83-16 146.83-18.4Q146.83-21 145.81-22.2 144.78-23.4 142.63-23.4L142.63-23.4Q140.08-23.4 136.68-22.05L136.68-22.05 135.58-25.15Q139.63-26.9 143.18-26.9L143.18-26.9Q147.23-26.9 149.21-24.73 151.18-22.55 151.18-18.6L151.18-18.6 151.18-5.6ZM142.08-2.7Q145.18-2.7 146.83-6.9L146.83-6.9 146.83-13.05 144.73-13.05Q141.58-13.05 140.11-11.7 138.63-10.35 138.63-7.55L138.63-7.55Q138.63-5.15 139.53-3.93 140.43-2.7 142.08-2.7L142.08-2.7ZM168.63-26.9Q169.73-26.9 170.63-26.6L170.63-26.6 169.88-22.35Q168.88-22.6 168.08-22.6L168.08-22.6Q166.13-22.6 164.88-20.85 163.63-19.1 162.93-15.5L162.93-15.5 162.93 0 158.53 0 158.53-26.35 162.33-26.35 162.68-21.45Q164.53-26.9 168.63-26.9L168.63-26.9ZM189.88-5.6Q189.88-4.2 190.28-3.53 190.68-2.85 191.58-2.45L191.58-2.45 190.63 0.6Q188.78 0.3 187.7-0.58 186.63-1.45 186.18-3.2L186.18-3.2Q184.03 0.6 179.88 0.6L179.88 0.6Q176.63 0.6 174.7-1.58 172.78-3.75 172.78-7.35L172.78-7.35Q172.78-11.55 175.38-13.78 177.98-16 182.93-16L182.93-16 185.53-16 185.53-18.4Q185.53-21 184.5-22.2 183.48-23.4 181.33-23.4L181.33-23.4Q178.78-23.4 175.38-22.05L175.38-22.05 174.28-25.15Q178.33-26.9 181.88-26.9L181.88-26.9Q185.93-26.9 187.9-24.73 189.88-22.55 189.88-18.6L189.88-18.6 189.88-5.6ZM180.78-2.7Q183.88-2.7 185.53-6.9L185.53-6.9 185.53-13.05 183.43-13.05Q180.28-13.05 178.8-11.7 177.33-10.35 177.33-7.55L177.33-7.55Q177.33-5.15 178.23-3.93 179.13-2.7 180.78-2.7L180.78-2.7ZM210.08-37.45L214.48-36.95 214.48 0 210.58 0 210.28-3.35Q207.93 0.6 204.28 0.6L204.28 0.6Q200.18 0.6 198-3.03 195.83-6.65 195.83-13.05L195.83-13.05Q195.83-17.2 196.93-20.35 198.03-23.5 199.98-25.2 201.93-26.9 204.43-26.9L204.43-26.9Q207.88-26.9 210.08-23.85L210.08-23.85 210.08-37.45ZM205.13-2.9Q207.98-2.9 210.08-6.65L210.08-6.65 210.08-20Q208.03-23.4 205.33-23.4L205.33-23.4Q203.03-23.4 201.75-20.9 200.48-18.4 200.48-13.15L200.48-13.15Q200.48-2.9 205.13-2.9L205.13-2.9ZM221.77-26.35L226.17-26.35 226.17 0 221.77 0 221.77-26.35ZM223.92-38.85Q225.27-38.85 226.07-38 226.87-37.15 226.87-35.8L226.87-35.8Q226.87-34.55 226.05-33.7 225.22-32.85 223.92-32.85L223.92-32.85Q222.62-32.85 221.8-33.7 220.97-34.55 220.97-35.8L220.97-35.8Q220.97-37.1 221.8-37.98 222.62-38.85 223.92-38.85L223.92-38.85ZM239.87-26.9Q244.22-26.9 247.32-23.95L247.32-23.95 245.42-21.4Q244.02-22.45 242.72-22.98 241.42-23.5 239.97-23.5L239.97-23.5Q238.22-23.5 237.2-22.53 236.17-21.55 236.17-19.85L236.17-19.85Q236.17-18.2 237.17-17.25 238.17-16.3 240.97-15.3L240.97-15.3Q244.57-14 246.27-12.2 247.97-10.4 247.97-7.3L247.97-7.3Q247.97-3.55 245.45-1.48 242.92 0.6 239.17 0.6L239.17 0.6Q234.17 0.6 230.82-2.85L230.82-2.85 233.12-5.3Q235.92-2.85 239.07-2.85L239.07-2.85Q241.07-2.85 242.27-3.95 243.47-5.05 243.47-7.05L243.47-7.05Q243.47-8.4 243.02-9.25 242.57-10.1 241.47-10.8 240.37-11.5 238.27-12.25L238.27-12.25Q234.77-13.55 233.27-15.33 231.77-17.1 231.77-19.7L231.77-19.7Q231.77-21.7 232.8-23.35 233.82-25 235.67-25.95 237.52-26.9 239.87-26.9L239.87-26.9ZM270.17-13.95Q270.17-12.85 270.07-11.65L270.07-11.65 256.27-11.65Q256.47-6.9 257.84-4.95 259.22-3 261.77-3L261.77-3Q263.42-3 264.72-3.53 266.02-4.05 267.42-5.2L267.42-5.2 269.37-2.55Q266.07 0.6 261.62 0.6L261.62 0.6Q256.92 0.6 254.32-2.88 251.72-6.35 251.72-12.9L251.72-12.9Q251.72-19.45 254.19-23.18 256.67-26.9 261.17-26.9L261.17-26.9Q265.52-26.9 267.84-23.63 270.17-20.35 270.17-13.95L270.17-13.95ZM265.92-14.9L265.92-15.25Q265.92-19.55 264.77-21.5 263.62-23.45 261.17-23.45L261.17-23.45Q258.97-23.45 257.72-21.48 256.47-19.5 256.27-14.9L256.27-14.9 265.92-14.9ZM306.76 0L302.21 0 302.21-16.2 291.11-16.2 291.11 0 286.56 0 286.56-34.45 291.11-34.45 291.11-19.95 302.21-19.95 302.21-34.45 306.76-34.45 306.76 0ZM330.86-26.35L330.86 0 327.06 0 326.76-3.7Q325.51-1.55 323.94-0.48 322.36 0.6 320.26 0.6L320.26 0.6Q317.41 0.6 315.71-1.35 314.01-3.3 314.01-6.45L314.01-6.45 314.01-26.35 318.41-26.35 318.41-6.9Q318.41-2.85 321.26-2.85L321.26-2.85Q322.91-2.85 324.16-4.03 325.41-5.2 326.46-7.3L326.46-7.3 326.46-26.35 330.86-26.35ZM348.61-26.9Q352.41-26.9 354.53-23.45 356.66-20 356.66-13.2L356.66-13.2Q356.66-8.9 355.61-5.8 354.56-2.7 352.63-1.05 350.71 0.6 348.16 0.6L348.16 0.6Q346.46 0.6 344.96-0.28 343.46-1.15 342.36-2.75L342.36-2.75 342.06 0 338.16 0 338.16-36.9 342.56-37.35 342.56-23.15Q344.91-26.9 348.61-26.9L348.61-26.9ZM347.21-2.9Q352.01-2.9 352.01-13.2L352.01-13.2Q352.01-18.85 350.86-21.13 349.71-23.4 347.56-23.4L347.56-23.4Q344.76-23.4 342.56-19.35L342.56-19.35 342.56-6.3Q343.46-4.75 344.63-3.83 345.81-2.9 347.21-2.9L347.21-2.9Z" opacity="1" transform="matrix(1,0,0,1,0,0)" fill="black" class="wordmark-text-0" id="SvgjsPath7781" stroke-width="7" stroke="black" stroke-linejoin="round"></path></svg></g></svg></g><g transform="matrix(1,0,0,1,3.5,49.025751935679914)"><svg viewBox="0 0 309.416 21.43443657015838" height="21.43443657015838" width="309.416"><g transform="matrix(1,0,0,1,0,0)"><svg width="309.416" viewBox="-0.3999999999999999 -43.4 752.6899999999999 52.95" height="21.43443657015838" data-palette-color="#1f6133"><path d="M21.9-23L14.25-22.5Q15.4-25.45 16.45-28.3L16.45-28.3Q17.4-30.8 18.38-33.58 19.35-36.35 20-38.6L20-38.6Q21.3-38.65 22.33-38.73 23.35-38.8 24.3-38.9 25.25-39 26.25-39.13 27.25-39.25 28.5-39.4L28.5-39.4Q27.6-36.9 26.48-34.08 25.35-31.25 24.3-28.75L24.3-28.75Q23.1-25.9 21.9-23L21.9-23ZM10.65-22.95L3.6-22Q4.5-25.35 5.35-28.45L5.35-28.45Q5.7-29.8 6.1-31.23 6.5-32.65 6.88-34.05 7.25-35.45 7.55-36.73 7.85-38 8.1-39L8.1-39Q8.55-38.95 8.97-38.95 9.4-38.95 9.75-38.95L9.75-38.95Q11.6-38.95 13.25-39.05 14.9-39.15 16.85-39.15L16.85-39.15Q15.95-37.1 14.85-34.33 13.75-31.55 12.85-29L12.85-29Q11.7-26.05 10.65-22.95L10.65-22.95ZM60.85-19.05Q60.5-13.95 58.85-10.18 57.2-6.4 54.87-3.85 52.55-1.3 49.87-0.05 47.2 1.2 44.8 1.2L44.8 1.2Q42.95 1.2 41.27 0.4 39.6-0.4 38.37-2.02 37.15-3.65 36.45-6.1 35.75-8.55 35.75-11.85L35.75-11.85Q35.75-18.3 37.6-23.1 39.45-27.9 42.27-31.1 45.1-34.3 48.32-35.85 51.55-37.4 54.35-37.4L54.35-37.4Q56.35-37.4 57.82-36.7 59.3-36 60.25-34.83 61.2-33.65 61.62-32.08 62.05-30.5 62.05-28.75L62.05-28.75 55.2-27.45Q54.75-29.45 54-30.3 53.25-31.15 52.3-31.15L52.3-31.15Q51.05-31.15 49.55-29.38 48.05-27.6 46.75-24.8 45.45-22 44.55-18.65 43.65-15.3 43.55-12.05L43.55-12.05Q43.55-8.95 44.47-7.63 45.4-6.3 46.85-6.3L46.85-6.3Q47.85-6.3 48.92-6.8 50-7.3 50.85-8.22 51.7-9.15 52.27-10.38 52.85-11.6 52.9-13.05L52.9-13.05 47.55-12.25 48.5-17.2Q50.85-17.5 53.1-17.8L53.1-17.8Q55-18.05 57.12-18.4 59.25-18.75 60.85-19.05L60.85-19.05ZM79.49-2.05L71.39 0.05Q72.74-6.6 73.99-12.95L73.99-12.95Q74.44-15.65 74.99-18.57 75.54-21.5 76.02-24.38 76.49-27.25 76.92-29.93 77.34-32.6 77.59-34.8L77.59-34.8Q80.44-35.7 83.74-36.13 87.04-36.55 90.29-36.55L90.29-36.55Q92.24-36.55 93.52-36.1 94.79-35.65 95.52-34.83 96.24-34 96.54-32.9 96.84-31.8 96.84-30.45L96.84-30.45Q96.84-28.45 96.14-26.53 95.44-24.6 94.27-22.88 93.09-21.15 91.57-19.73 90.04-18.3 88.29-17.4L88.29-17.4Q89.19-15.4 90.22-13.03 91.24-10.65 92.14-8.5L92.14-8.5Q93.14-6 94.19-3.5L94.19-3.5 86.44-0.8Q85.44-4 84.64-6.8L84.64-6.8Q84.29-7.95 83.94-9.18 83.59-10.4 83.29-11.5 82.99-12.6 82.79-13.48 82.59-14.35 82.54-14.9L82.54-14.9 81.89-14.7Q81.59-13.1 81.17-10.95 80.74-8.8 80.39-6.8L80.39-6.8Q79.94-4.45 79.49-2.05L79.49-2.05ZM84.74-29.6L83.14-21.65Q84.09-21.75 85.47-22.45 86.84-23.15 88.09-24.13 89.34-25.1 90.24-26.15 91.14-27.2 91.14-28L91.14-28Q91.14-28.55 90.79-28.88 90.44-29.2 89.82-29.38 89.19-29.55 88.44-29.6 87.69-29.65 86.89-29.65L86.89-29.65Q86.34-29.65 85.77-29.63 85.19-29.6 84.74-29.6L84.74-29.6ZM133.99-27.05Q133.99-22.95 133.11-19.33 132.24-15.7 130.79-12.68 129.34-9.65 127.41-7.28 125.49-4.9 123.39-3.23 121.29-1.55 119.14-0.68 116.99 0.2 115.04 0.2L115.04 0.2Q113.39 0.2 112.04-0.43 110.69-1.05 109.69-2.27 108.69-3.5 108.11-5.43 107.54-7.35 107.54-10.05L107.54-10.05Q107.54-12.85 108.24-15.95 108.94-19.05 110.14-22.1 111.34-25.15 113.09-27.9 114.84-30.65 116.94-32.77 119.04-34.9 121.44-36.15 123.84-37.4 126.44-37.4L126.44-37.4Q128.69-37.4 130.16-36.48 131.64-35.55 132.46-34.08 133.29-32.6 133.64-30.75 133.99-28.9 133.99-27.05L133.99-27.05ZM114.99-11.35Q114.99-10.8 115.19-10.2 115.39-9.6 115.74-9.15 116.09-8.7 116.61-8.38 117.14-8.05 117.74-8.05L117.74-8.05Q119.99-8.05 121.74-9.6 123.49-11.15 124.64-13.4 125.79-15.65 126.41-18.2 127.04-20.75 127.04-22.85L127.04-22.85Q127.04-23.45 126.96-24.15 126.89-24.85 126.66-25.45 126.44-26.05 125.96-26.48 125.49-26.9 124.69-26.9L124.69-26.9Q123.09-26.9 121.74-26.1 120.39-25.3 119.31-23.98 118.24-22.65 117.44-20.98 116.64-19.3 116.06-17.57 115.49-15.85 115.24-14.2 114.99-12.55 114.99-11.35L114.99-11.35ZM155.68-1.65L145.28 0.2 149.08-35.3Q151.43-35.4 153.51-35.77 155.58-36.15 157.63-36.3L157.63-36.3Q157.63-36.25 157.48-35.27 157.33-34.3 157.08-32.73 156.83-31.15 156.53-29.18 156.23-27.2 155.66-23.75 155.08-20.3 154.13-14.2L154.13-14.2 154.88-14.2Q156.18-18.8 157.03-21.73 157.88-24.65 158.41-26.48 158.93-28.3 159.41-30 159.88-31.7 160.31-33.15 160.73-34.6 160.98-35.6L160.98-35.6 161.43-35.6Q162.33-35.6 163.26-35.7 164.18-35.8 165.01-35.93 165.83-36.05 166.73-36.25L166.73-36.25Q166.63-35.8 166.51-34.4 166.38-33 166.18-31.03 165.98-29.05 165.78-26.68 165.58-24.3 165.38-22.03 165.18-19.75 165.01-17.7 164.83-15.65 164.68-14.2L164.68-14.2 165.58-14.2 170.33-35.7Q172.03-35.95 173.68-36.15L173.68-36.15Q175.13-36.35 176.68-36.55 178.23-36.75 179.43-37L179.43-37Q178.68-34.9 177.93-32.33 177.18-29.75 176.38-26.9 175.58-24.05 174.86-21.15 174.13-18.25 173.43-15.55L173.43-15.55Q171.83-9.15 170.33-2.4L170.33-2.4 159.03-0.5 161.23-19.8 160.63-19.8 155.68-1.65ZM192.03 5.55L184.18 5.55Q184.58 3.55 185.03 1.48 185.48-0.6 185.88-2.53 186.28-4.45 186.6-6.1 186.93-7.75 187.08-9L187.08-9Q187.48-9 188.35-8.97 189.23-8.95 189.68-8.95L189.68-8.95Q190.38-8.95 191.5-8.95 192.63-8.95 193.75-9 194.88-9.05 196.13-9.1L196.13-9.1Q195.73-7.25 195.05-4.73 194.38-2.2 193.63 0.3 192.88 2.8 192.03 5.55L192.03 5.55ZM252.02-10.75Q250.82-8 249.34-5.98 247.87-3.95 246.24-2.58 244.62-1.2 242.97-0.55 241.32 0.1 239.77 0.1L239.77 0.1Q238.22 0.1 236.94-0.6 235.67-1.3 234.72-2.7 233.77-4.1 233.19-6.15 232.62-8.2 232.62-10.95L232.62-10.95Q232.62-15.65 233.92-20.23 235.22-24.8 237.57-28.45 239.92-32.1 243.14-34.33 246.37-36.55 250.27-36.55L250.27-36.55Q251.47-36.55 252.57-36.05 253.67-35.55 254.47-34.65 255.27-33.75 255.74-32.45 256.22-31.15 256.22-29.55L256.22-29.55Q256.22-29.25 256.22-28.93 256.22-28.6 256.17-28.25L256.17-28.25 249.62-26.5Q249.02-27.75 248.22-27.75L248.22-27.75Q247.42-27.75 246.54-26.83 245.67-25.9 244.82-24.43 243.97-22.95 243.17-21.13 242.37-19.3 241.77-17.45 241.17-15.6 240.79-13.93 240.42-12.25 240.42-11.2L240.42-11.2Q240.42-9.6 240.84-8.95 241.27-8.3 241.97-8.3L241.97-8.3Q242.52-8.3 243.22-8.72 243.92-9.15 244.52-9.83 245.12-10.5 245.62-11.35 246.12-12.2 246.32-13.05L246.32-13.05 252.02-10.75ZM291.96-27.05Q291.96-22.95 291.09-19.33 290.21-15.7 288.76-12.68 287.31-9.65 285.39-7.28 283.46-4.9 281.36-3.23 279.26-1.55 277.11-0.68 274.96 0.2 273.01 0.2L273.01 0.2Q271.36 0.2 270.01-0.43 268.66-1.05 267.66-2.27 266.66-3.5 266.09-5.43 265.51-7.35 265.51-10.05L265.51-10.05Q265.51-12.85 266.21-15.95 266.91-19.05 268.11-22.1 269.31-25.15 271.06-27.9 272.81-30.65 274.91-32.77 277.01-34.9 279.41-36.15 281.81-37.4 284.41-37.4L284.41-37.4Q286.66-37.4 288.14-36.48 289.61-35.55 290.44-34.08 291.26-32.6 291.61-30.75 291.96-28.9 291.96-27.05L291.96-27.05ZM272.96-11.35Q272.96-10.8 273.16-10.2 273.36-9.6 273.71-9.15 274.06-8.7 274.59-8.38 275.11-8.05 275.71-8.05L275.71-8.05Q277.96-8.05 279.71-9.6 281.46-11.15 282.61-13.4 283.76-15.65 284.39-18.2 285.01-20.75 285.01-22.85L285.01-22.85Q285.01-23.45 284.94-24.15 284.86-24.85 284.64-25.45 284.41-26.05 283.94-26.48 283.46-26.9 282.66-26.9L282.66-26.9Q281.06-26.9 279.71-26.1 278.36-25.3 277.29-23.98 276.21-22.65 275.41-20.98 274.61-19.3 274.04-17.57 273.46-15.85 273.21-14.2 272.96-12.55 272.96-11.35L272.96-11.35ZM308.76-1.45L301.46 0.25Q302.96-6.95 304.31-13.7L304.31-13.7Q304.81-16.6 305.38-19.7 305.96-22.8 306.46-25.83 306.96-28.85 307.36-31.63 307.76-34.4 307.96-36.65L307.96-36.65Q308.61-36.6 309.06-36.6 309.51-36.6 310.11-36.6L310.11-36.6Q310.81-36.6 311.81-36.63 312.81-36.65 313.81-36.7 314.81-36.75 315.96-36.8L315.96-36.8Q316.66-33.3 317.21-30.05L317.21-30.05Q317.76-27.2 318.33-24.2 318.91-21.2 319.36-19.1L319.36-19.1Q319.56-20.1 319.81-21.43 320.06-22.75 320.36-24.2 320.66-25.65 320.93-27.13 321.21-28.6 321.51-30.05L321.51-30.05Q322.21-33.3 322.96-36.75L322.96-36.75 329.06-37.5Q327.36-29.85 326.06-23L326.06-23Q325.46-20.05 324.88-17.03 324.31-14 323.81-11.23 323.31-8.45 322.96-6.08 322.61-3.7 322.41-2.1L322.41-2.1Q322.26-2.1 321.23-1.88 320.21-1.65 318.88-1.35 317.56-1.05 316.23-0.75 314.91-0.45 314.26-0.2L314.26-0.2Q313.96-4.2 313.61-7.8L313.61-7.8Q313.46-9.35 313.28-10.98 313.11-12.6 312.91-14.1 312.71-15.6 312.51-16.9 312.31-18.2 312.11-19.15L312.11-19.15Q311.96-18.2 311.71-16.95 311.46-15.7 311.21-14.3 310.96-12.9 310.71-11.38 310.46-9.85 310.16-8.45L310.16-8.45Q309.51-5.1 308.76-1.45L308.76-1.45ZM343.95-1.45L336.65 0.25Q338.15-6.95 339.5-13.7L339.5-13.7Q340-16.6 340.58-19.7 341.15-22.8 341.65-25.83 342.15-28.85 342.55-31.63 342.95-34.4 343.15-36.65L343.15-36.65Q343.8-36.6 344.25-36.6 344.7-36.6 345.3-36.6L345.3-36.6Q346-36.6 347-36.63 348-36.65 349-36.7 350-36.75 351.15-36.8L351.15-36.8Q351.85-33.3 352.4-30.05L352.4-30.05Q352.95-27.2 353.53-24.2 354.1-21.2 354.55-19.1L354.55-19.1Q354.75-20.1 355-21.43 355.25-22.75 355.55-24.2 355.85-25.65 356.13-27.13 356.4-28.6 356.7-30.05L356.7-30.05Q357.4-33.3 358.15-36.75L358.15-36.75 364.25-37.5Q362.55-29.85 361.25-23L361.25-23Q360.65-20.05 360.08-17.03 359.5-14 359-11.23 358.5-8.45 358.15-6.08 357.8-3.7 357.6-2.1L357.6-2.1Q357.45-2.1 356.43-1.88 355.4-1.65 354.08-1.35 352.75-1.05 351.43-0.75 350.1-0.45 349.45-0.2L349.45-0.2Q349.15-4.2 348.8-7.8L348.8-7.8Q348.65-9.35 348.48-10.98 348.3-12.6 348.1-14.1 347.9-15.6 347.7-16.9 347.5-18.2 347.3-19.15L347.3-19.15Q347.15-18.2 346.9-16.95 346.65-15.7 346.4-14.3 346.15-12.9 345.9-11.38 345.65-9.85 345.35-8.45L345.35-8.45Q344.7-5.1 343.95-1.45L343.95-1.45ZM388.15-2.45L372 0.05 378.55-35.5 394.35-36.85Q394-35.75 393.75-34.6L393.75-34.6Q393.5-33.65 393.27-32.63 393.05-31.6 392.9-30.8L392.9-30.8Q392.4-30.75 391.47-30.73 390.55-30.7 389.5-30.68 388.45-30.65 387.37-30.65 386.3-30.65 385.5-30.65L385.5-30.65 383.75-21.7Q385.3-21.8 386.65-21.85L386.65-21.85Q387.75-21.9 388.9-21.9 390.05-21.9 390.6-21.95L390.6-21.95Q390.4-20.55 390.22-19.2 390.05-17.85 389.8-16.45L389.8-16.45Q389.3-16.4 388.17-16.38 387.05-16.35 385.9-16.3L385.9-16.3Q384.6-16.25 383.05-16.2L383.05-16.2 381.35-7 388.65-8.15 388.15-2.45ZM422.59-10.75Q421.39-8 419.92-5.98 418.44-3.95 416.82-2.58 415.19-1.2 413.54-0.55 411.89 0.1 410.34 0.1L410.34 0.1Q408.79 0.1 407.52-0.6 406.24-1.3 405.29-2.7 404.34-4.1 403.77-6.15 403.19-8.2 403.19-10.95L403.19-10.95Q403.19-15.65 404.49-20.23 405.79-24.8 408.14-28.45 410.49-32.1 413.72-34.33 416.94-36.55 420.84-36.55L420.84-36.55Q422.04-36.55 423.14-36.05 424.24-35.55 425.04-34.65 425.84-33.75 426.32-32.45 426.79-31.15 426.79-29.55L426.79-29.55Q426.79-29.25 426.79-28.93 426.79-28.6 426.74-28.25L426.74-28.25 420.19-26.5Q419.59-27.75 418.79-27.75L418.79-27.75Q417.99-27.75 417.12-26.83 416.24-25.9 415.39-24.43 414.54-22.95 413.74-21.13 412.94-19.3 412.34-17.45 411.74-15.6 411.37-13.93 410.99-12.25 410.99-11.2L410.99-11.2Q410.99-9.6 411.42-8.95 411.84-8.3 412.54-8.3L412.54-8.3Q413.09-8.3 413.79-8.72 414.49-9.15 415.09-9.83 415.69-10.5 416.19-11.35 416.69-12.2 416.89-13.05L416.89-13.05 422.59-10.75ZM448.04-1.35L439.04 0.05Q440.19-5.45 441.24-10.8L441.24-10.8Q441.69-13.05 442.14-15.5 442.59-17.95 443.01-20.33 443.44-22.7 443.76-24.93 444.09-27.15 444.34-29L444.34-29Q443.19-29.15 442.01-29.1 440.84-29.05 439.69-29.4L439.69-29.4Q439.74-30.2 439.74-31.25 439.74-32.3 439.79-33.35L439.79-33.35Q439.84-34.5 439.89-35.8L439.89-35.8Q441.19-35.7 442.49-35.65 443.79-35.6 445.09-35.6L445.09-35.6Q447.64-35.6 450.01-35.73 452.39-35.85 454.41-36.02 456.44-36.2 458.39-36.45L458.39-36.45 457.84-33.75Q457.59-32.6 457.36-31.4 457.14-30.2 456.94-29.35L456.94-29.35Q455.84-29.05 454.71-28.93 453.59-28.8 452.49-28.6L452.49-28.6Q452.14-26.9 451.74-24.83 451.34-22.75 450.96-20.53 450.59-18.3 450.24-16 449.89-13.7 449.54-11.6L449.54-11.6Q448.74-6.65 448.04-1.35L448.04-1.35ZM471.38 5.55L463.53 5.55Q463.93 3.55 464.38 1.48 464.83-0.6 465.23-2.53 465.63-4.45 465.96-6.1 466.28-7.75 466.43-9L466.43-9Q466.83-9 467.71-8.97 468.58-8.95 469.03-8.95L469.03-8.95Q469.73-8.95 470.86-8.95 471.98-8.95 473.11-9 474.23-9.05 475.48-9.1L475.48-9.1Q475.08-7.25 474.41-4.73 473.73-2.2 472.98 0.3 472.23 2.8 471.38 5.55L471.38 5.55ZM523.52-1.35L514.52 0.05Q515.67-5.45 516.72-10.8L516.72-10.8Q517.17-13.05 517.62-15.5 518.07-17.95 518.5-20.33 518.92-22.7 519.25-24.93 519.57-27.15 519.82-29L519.82-29Q518.67-29.15 517.5-29.1 516.32-29.05 515.17-29.4L515.17-29.4Q515.22-30.2 515.22-31.25 515.22-32.3 515.27-33.35L515.27-33.35Q515.32-34.5 515.37-35.8L515.37-35.8Q516.67-35.7 517.97-35.65 519.27-35.6 520.57-35.6L520.57-35.6Q523.12-35.6 525.5-35.73 527.87-35.85 529.9-36.02 531.92-36.2 533.87-36.45L533.87-36.45 533.32-33.75Q533.07-32.6 532.85-31.4 532.62-30.2 532.42-29.35L532.42-29.35Q531.32-29.05 530.2-28.93 529.07-28.8 527.97-28.6L527.97-28.6Q527.62-26.9 527.22-24.83 526.82-22.75 526.45-20.53 526.07-18.3 525.72-16 525.37-13.7 525.02-11.6L525.02-11.6Q524.22-6.65 523.52-1.35L523.52-1.35ZM548.82-1.5L541.12 0.1Q542.52-6.9 543.82-13.55L543.82-13.55Q544.32-16.4 544.87-19.48 545.42-22.55 545.89-25.55 546.37-28.55 546.79-31.38 547.22-34.2 547.47-36.5L547.47-36.5Q548.62-36.45 549.59-36.38 550.57-36.3 551.52-36.25 552.47-36.2 553.44-36.18 554.42-36.15 555.57-36.15L555.57-36.15Q554.72-32.6 553.89-29.05 553.07-25.5 552.37-21.9L552.37-21.9 557.32-22.45Q558.02-26 558.57-29.33 559.12-32.65 560.02-36.2L560.02-36.2Q561.17-36.4 562.57-36.52 563.97-36.65 565.17-36.75 566.37-36.85 567.19-36.93 568.02-37 568.02-37L568.02-37Q567.32-34.75 566.69-32.08 566.07-29.4 565.47-26.53 564.87-23.65 564.32-20.7 563.77-17.75 563.32-15.1L563.32-15.1Q562.22-8.75 561.27-2.1L561.27-2.1 553.47-1.2Q554.12-4.2 554.62-7.05L554.62-7.05Q555.12-9.45 555.64-12.05 556.17-14.65 556.47-16.5L556.47-16.5 551.62-16.05Q551.27-14.15 550.79-11.65 550.32-9.15 549.92-6.9L549.92-6.9Q549.37-4.2 548.82-1.5L548.82-1.5ZM583.66-2.05L575.56 0.05Q576.91-6.6 578.16-12.95L578.16-12.95Q578.61-15.65 579.16-18.57 579.71-21.5 580.19-24.38 580.66-27.25 581.09-29.93 581.51-32.6 581.76-34.8L581.76-34.8Q584.61-35.7 587.91-36.13 591.21-36.55 594.46-36.55L594.46-36.55Q596.41-36.55 597.69-36.1 598.96-35.65 599.69-34.83 600.41-34 600.71-32.9 601.01-31.8 601.01-30.45L601.01-30.45Q601.01-28.45 600.31-26.53 599.61-24.6 598.44-22.88 597.26-21.15 595.74-19.73 594.21-18.3 592.46-17.4L592.46-17.4Q593.36-15.4 594.39-13.03 595.41-10.65 596.31-8.5L596.31-8.5Q597.31-6 598.36-3.5L598.36-3.5 590.61-0.8Q589.61-4 588.81-6.8L588.81-6.8Q588.46-7.95 588.11-9.18 587.76-10.4 587.46-11.5 587.16-12.6 586.96-13.48 586.76-14.35 586.71-14.9L586.71-14.9 586.06-14.7Q585.76-13.1 585.34-10.95 584.91-8.8 584.56-6.8L584.56-6.8Q584.11-4.45 583.66-2.05L583.66-2.05ZM588.91-29.6L587.31-21.65Q588.26-21.75 589.64-22.45 591.01-23.15 592.26-24.13 593.51-25.1 594.41-26.15 595.31-27.2 595.31-28L595.31-28Q595.31-28.55 594.96-28.88 594.61-29.2 593.99-29.38 593.36-29.55 592.61-29.6 591.86-29.65 591.06-29.65L591.06-29.65Q590.51-29.65 589.94-29.63 589.36-29.6 588.91-29.6L588.91-29.6ZM618.66-1Q618.21-1 616.88-0.88 615.56-0.75 614.16-0.58 612.76-0.4 611.63-0.25 610.51-0.1 610.41-0.05L610.41-0.05Q610.91-2.2 611.43-4.83 611.96-7.45 612.51-10.33 613.06-13.2 613.56-16.15 614.06-19.1 614.51-21.85L614.51-21.85Q615.56-28.25 616.61-35L616.61-35 624.41-36.25Q623.26-29.55 622.16-23.1L622.16-23.1Q621.71-20.35 621.23-17.4 620.76-14.45 620.28-11.55 619.81-8.65 619.41-5.93 619.01-3.2 618.66-1L618.66-1ZM648.75-1.5L635.8 0.45Q636.45-6.55 637-13.3L637-13.3Q637.25-16.1 637.48-19.2 637.7-22.3 637.88-25.33 638.05-28.35 638.15-31.18 638.25-34 638.3-36.35L638.3-36.35Q639.5-36.35 640.88-36.4 642.25-36.45 643.38-36.5 644.5-36.55 645.3-36.63 646.1-36.7 646.1-36.7L646.1-36.7Q645.55-30.9 645.15-27.18 644.75-23.45 644.53-21.13 644.3-18.8 644.13-16.65 643.95-14.5 643.75-12.65 643.55-10.8 643.4-9.5L643.4-9.5 644.3-9.5 649.9-36.1Q651.25-36.15 652.65-36.25L652.65-36.25Q653.9-36.35 655.28-36.4 656.65-36.45 657.8-36.6L657.8-36.6Q657.1-34.4 656.38-31.75 655.65-29.1 654.88-26.25 654.1-23.4 653.38-20.45 652.65-17.5 651.95-14.75L651.95-14.75Q650.35-8.3 648.75-1.5L648.75-1.5ZM680.95-2.45L664.8 0.05 671.35-35.5 687.15-36.85Q686.8-35.75 686.55-34.6L686.55-34.6Q686.3-33.65 686.07-32.63 685.85-31.6 685.7-30.8L685.7-30.8Q685.2-30.75 684.27-30.73 683.35-30.7 682.3-30.68 681.25-30.65 680.17-30.65 679.1-30.65 678.3-30.65L678.3-30.65 676.55-21.7Q678.1-21.8 679.45-21.85L679.45-21.85Q680.55-21.9 681.7-21.9 682.85-21.9 683.4-21.95L683.4-21.95Q683.2-20.55 683.02-19.2 682.85-17.85 682.6-16.45L682.6-16.45Q682.1-16.4 680.97-16.38 679.85-16.35 678.7-16.3L678.7-16.3Q677.4-16.25 675.85-16.2L675.85-16.2 674.15-7 681.45-8.15 680.95-2.45ZM704.14-11.85Q702.69-11.85 701.24-11.75 699.79-11.65 698.34-11.55L698.34-11.55Q699.89-17.7 701.37-23.8 702.84-29.9 704.44-36.05L704.44-36.05Q705.39-36.2 706.62-36.35 707.84-36.5 709.09-36.7 710.34-36.9 711.52-37.05 712.69-37.2 713.49-37.35L713.49-37.35Q710.79-31.05 708.57-24.68 706.34-18.3 704.14-11.85L704.14-11.85ZM704.64-4Q704.64-3.05 704.22-2.1 703.79-1.15 702.99-0.43 702.19 0.3 700.99 0.73 699.79 1.15 698.24 1.15L698.24 1.15Q697.19 1.15 696.34 0.75 695.49 0.35 694.97-0.33 694.44-1 694.14-1.85 693.84-2.7 693.84-3.55L693.84-3.55Q693.84-4.5 694.14-5.38 694.44-6.25 695.07-6.93 695.69-7.6 696.62-8.05 697.54-8.5 698.84-8.5L698.84-8.5Q701.74-8.5 703.19-7.13 704.64-5.75 704.64-4L704.64-4ZM741.69-23L734.04-22.5Q735.19-25.45 736.24-28.3L736.24-28.3Q737.19-30.8 738.16-33.58 739.14-36.35 739.79-38.6L739.79-38.6Q741.09-38.65 742.11-38.73 743.14-38.8 744.09-38.9 745.04-39 746.04-39.13 747.04-39.25 748.29-39.4L748.29-39.4Q747.39-36.9 746.26-34.08 745.14-31.25 744.09-28.75L744.09-28.75Q742.89-25.9 741.69-23L741.69-23ZM730.44-22.95L723.39-22Q724.29-25.35 725.14-28.45L725.14-28.45Q725.49-29.8 725.89-31.23 726.29-32.65 726.66-34.05 727.04-35.45 727.34-36.73 727.64-38 727.89-39L727.89-39Q728.34-38.95 728.76-38.95 729.19-38.95 729.54-38.95L729.54-38.95Q731.39-38.95 733.04-39.05 734.69-39.15 736.64-39.15L736.64-39.15Q735.74-37.1 734.64-34.33 733.54-31.55 732.64-29L732.64-29Q731.49-26.05 730.44-22.95L730.44-22.95Z" opacity="1" transform="matrix(1,0,0,1,0,0)" fill="black" class="slogan-text-1" id="SvgjsPath7780" stroke-width="7" stroke="black" stroke-linejoin="round"></path></svg></g></svg></g></svg></g></svg></g></svg></g></svg></g></svg></g></mask><g transform="matrix(1,0,0,1,39.55199999999999,88.36990574708085)"><svg viewBox="0 0 316.416 70.46018850583829" height="70.46018850583829" width="316.416"><g><svg viewBox="0 0 316.416 70.46018850583829" height="70.46018850583829" width="316.416"><g><svg viewBox="0 0 316.416 70.46018850583829" height="70.46018850583829" width="316.416"><g><svg viewBox="0 0 316.416 70.46018850583829" height="70.46018850583829" width="316.416"><g id="textblocktransform"><svg viewBox="0 0 316.416 70.46018850583829" height="70.46018850583829" width="316.416" id="textblock"><g><svg viewBox="0 0 316.416 40.837797165879415" height="40.837797165879415" width="316.416"><g transform="matrix(1,0,0,1,0,0)"><svg width="316.416" viewBox="-0.20000000000000018 -42.85 360.86 47.45" height="40.837797165879415" data-palette-color="#1f6133"><path d="M10.5-34.45Q16.55-34.45 19.68-31.75 22.8-29.05 22.8-23.8L22.8-23.8Q22.8-18.2 19.63-15.48 16.45-12.75 10.6-12.75L10.6-12.75 8.35-12.75 8.35 0 3.8 0 3.8-34.45 10.5-34.45ZM10.6-16.35Q14.45-16.35 16.25-17.98 18.05-19.6 18.05-23.75L18.05-23.75Q18.05-27.5 16.23-29.18 14.4-30.85 10.6-30.85L10.6-30.85 8.35-30.85 8.35-16.35 10.6-16.35ZM32.05 0.6Q29.85 0.6 28.52-0.8 27.2-2.2 27.2-4.6L27.2-4.6 27.2-36.95 31.6-37.45 31.6-4.7Q31.6-3.05 33-3.05L33-3.05Q33.65-3.05 34.25-3.3L34.25-3.3 35.25-0.3Q33.8 0.6 32.05 0.6L32.05 0.6ZM54.85-5.6Q54.85-4.2 55.25-3.53 55.65-2.85 56.55-2.45L56.55-2.45 55.6 0.6Q53.75 0.3 52.67-0.58 51.6-1.45 51.15-3.2L51.15-3.2Q49 0.6 44.85 0.6L44.85 0.6Q41.6 0.6 39.67-1.58 37.75-3.75 37.75-7.35L37.75-7.35Q37.75-11.55 40.35-13.78 42.95-16 47.9-16L47.9-16 50.5-16 50.5-18.4Q50.5-21 49.47-22.2 48.45-23.4 46.3-23.4L46.3-23.4Q43.75-23.4 40.35-22.05L40.35-22.05 39.25-25.15Q43.3-26.9 46.85-26.9L46.85-26.9Q50.9-26.9 52.87-24.73 54.85-22.55 54.85-18.6L54.85-18.6 54.85-5.6ZM45.75-2.7Q48.85-2.7 50.5-6.9L50.5-6.9 50.5-13.05 48.4-13.05Q45.25-13.05 43.77-11.7 42.3-10.35 42.3-7.55L42.3-7.55Q42.3-5.15 43.2-3.93 44.1-2.7 45.75-2.7L45.75-2.7ZM72.94-26.9Q75.79-26.9 77.49-24.85 79.19-22.8 79.19-19.35L79.19-19.35 79.19 0 74.79 0 74.79-18.75Q74.79-21.3 74.07-22.38 73.34-23.45 71.89-23.45L71.89-23.45Q69.04-23.45 66.59-18.55L66.59-18.55 66.59 0 62.19 0 62.19-26.35 65.99-26.35 66.34-22.4Q67.64-24.6 69.19-25.75 70.74-26.9 72.94-26.9L72.94-26.9ZM96.24-3.95L97.94-1.2Q95.69 0.6 92.89 0.6L92.89 0.6Q89.94 0.6 88.32-1.15 86.69-2.9 86.69-5.85L86.69-5.85 86.69-22.9 83.14-22.9 83.14-26.35 86.69-26.35 86.69-32.3 91.09-32.85 91.09-26.35 96.19-26.35 95.74-22.9 91.09-22.9 91.09-5.8Q91.09-3.05 93.44-3.05L93.44-3.05Q94.24-3.05 94.84-3.25 95.44-3.45 96.24-3.95L96.24-3.95ZM119.04-34.45Q125.09-34.45 128.21-31.75 131.34-29.05 131.34-23.8L131.34-23.8Q131.34-18.2 128.16-15.48 124.99-12.75 119.14-12.75L119.14-12.75 116.89-12.75 116.89 0 112.34 0 112.34-34.45 119.04-34.45ZM119.14-16.35Q122.99-16.35 124.79-17.98 126.59-19.6 126.59-23.75L126.59-23.75Q126.59-27.5 124.76-29.18 122.94-30.85 119.14-30.85L119.14-30.85 116.89-30.85 116.89-16.35 119.14-16.35ZM151.18-5.6Q151.18-4.2 151.58-3.53 151.98-2.85 152.88-2.45L152.88-2.45 151.93 0.6Q150.08 0.3 149.01-0.58 147.93-1.45 147.48-3.2L147.48-3.2Q145.33 0.6 141.18 0.6L141.18 0.6Q137.93 0.6 136.01-1.58 134.08-3.75 134.08-7.35L134.08-7.35Q134.08-11.55 136.68-13.78 139.28-16 144.23-16L144.23-16 146.83-16 146.83-18.4Q146.83-21 145.81-22.2 144.78-23.4 142.63-23.4L142.63-23.4Q140.08-23.4 136.68-22.05L136.68-22.05 135.58-25.15Q139.63-26.9 143.18-26.9L143.18-26.9Q147.23-26.9 149.21-24.73 151.18-22.55 151.18-18.6L151.18-18.6 151.18-5.6ZM142.08-2.7Q145.18-2.7 146.83-6.9L146.83-6.9 146.83-13.05 144.73-13.05Q141.58-13.05 140.11-11.7 138.63-10.35 138.63-7.55L138.63-7.55Q138.63-5.15 139.53-3.93 140.43-2.7 142.08-2.7L142.08-2.7ZM168.63-26.9Q169.73-26.9 170.63-26.6L170.63-26.6 169.88-22.35Q168.88-22.6 168.08-22.6L168.08-22.6Q166.13-22.6 164.88-20.85 163.63-19.1 162.93-15.5L162.93-15.5 162.93 0 158.53 0 158.53-26.35 162.33-26.35 162.68-21.45Q164.53-26.9 168.63-26.9L168.63-26.9ZM189.88-5.6Q189.88-4.2 190.28-3.53 190.68-2.85 191.58-2.45L191.58-2.45 190.63 0.6Q188.78 0.3 187.7-0.58 186.63-1.45 186.18-3.2L186.18-3.2Q184.03 0.6 179.88 0.6L179.88 0.6Q176.63 0.6 174.7-1.58 172.78-3.75 172.78-7.35L172.78-7.35Q172.78-11.55 175.38-13.78 177.98-16 182.93-16L182.93-16 185.53-16 185.53-18.4Q185.53-21 184.5-22.2 183.48-23.4 181.33-23.4L181.33-23.4Q178.78-23.4 175.38-22.05L175.38-22.05 174.28-25.15Q178.33-26.9 181.88-26.9L181.88-26.9Q185.93-26.9 187.9-24.73 189.88-22.55 189.88-18.6L189.88-18.6 189.88-5.6ZM180.78-2.7Q183.88-2.7 185.53-6.9L185.53-6.9 185.53-13.05 183.43-13.05Q180.28-13.05 178.8-11.7 177.33-10.35 177.33-7.55L177.33-7.55Q177.33-5.15 178.23-3.93 179.13-2.7 180.78-2.7L180.78-2.7ZM210.08-37.45L214.48-36.95 214.48 0 210.58 0 210.28-3.35Q207.93 0.6 204.28 0.6L204.28 0.6Q200.18 0.6 198-3.03 195.83-6.65 195.83-13.05L195.83-13.05Q195.83-17.2 196.93-20.35 198.03-23.5 199.98-25.2 201.93-26.9 204.43-26.9L204.43-26.9Q207.88-26.9 210.08-23.85L210.08-23.85 210.08-37.45ZM205.13-2.9Q207.98-2.9 210.08-6.65L210.08-6.65 210.08-20Q208.03-23.4 205.33-23.4L205.33-23.4Q203.03-23.4 201.75-20.9 200.48-18.4 200.48-13.15L200.48-13.15Q200.48-2.9 205.13-2.9L205.13-2.9ZM221.77-26.35L226.17-26.35 226.17 0 221.77 0 221.77-26.35ZM223.92-38.85Q225.27-38.85 226.07-38 226.87-37.15 226.87-35.8L226.87-35.8Q226.87-34.55 226.05-33.7 225.22-32.85 223.92-32.85L223.92-32.85Q222.62-32.85 221.8-33.7 220.97-34.55 220.97-35.8L220.97-35.8Q220.97-37.1 221.8-37.98 222.62-38.85 223.92-38.85L223.92-38.85ZM239.87-26.9Q244.22-26.9 247.32-23.95L247.32-23.95 245.42-21.4Q244.02-22.45 242.72-22.98 241.42-23.5 239.97-23.5L239.97-23.5Q238.22-23.5 237.2-22.53 236.17-21.55 236.17-19.85L236.17-19.85Q236.17-18.2 237.17-17.25 238.17-16.3 240.97-15.3L240.97-15.3Q244.57-14 246.27-12.2 247.97-10.4 247.97-7.3L247.97-7.3Q247.97-3.55 245.45-1.48 242.92 0.6 239.17 0.6L239.17 0.6Q234.17 0.6 230.82-2.85L230.82-2.85 233.12-5.3Q235.92-2.85 239.07-2.85L239.07-2.85Q241.07-2.85 242.27-3.95 243.47-5.05 243.47-7.05L243.47-7.05Q243.47-8.4 243.02-9.25 242.57-10.1 241.47-10.8 240.37-11.5 238.27-12.25L238.27-12.25Q234.77-13.55 233.27-15.33 231.77-17.1 231.77-19.7L231.77-19.7Q231.77-21.7 232.8-23.35 233.82-25 235.67-25.95 237.52-26.9 239.87-26.9L239.87-26.9ZM270.17-13.95Q270.17-12.85 270.07-11.65L270.07-11.65 256.27-11.65Q256.47-6.9 257.84-4.95 259.22-3 261.77-3L261.77-3Q263.42-3 264.72-3.53 266.02-4.05 267.42-5.2L267.42-5.2 269.37-2.55Q266.07 0.6 261.62 0.6L261.62 0.6Q256.92 0.6 254.32-2.88 251.72-6.35 251.72-12.9L251.72-12.9Q251.72-19.45 254.19-23.18 256.67-26.9 261.17-26.9L261.17-26.9Q265.52-26.9 267.84-23.63 270.17-20.35 270.17-13.95L270.17-13.95ZM265.92-14.9L265.92-15.25Q265.92-19.55 264.77-21.5 263.62-23.45 261.17-23.45L261.17-23.45Q258.97-23.45 257.72-21.48 256.47-19.5 256.27-14.9L256.27-14.9 265.92-14.9ZM306.76 0L302.21 0 302.21-16.2 291.11-16.2 291.11 0 286.56 0 286.56-34.45 291.11-34.45 291.11-19.95 302.21-19.95 302.21-34.45 306.76-34.45 306.76 0ZM330.86-26.35L330.86 0 327.06 0 326.76-3.7Q325.51-1.55 323.94-0.48 322.36 0.6 320.26 0.6L320.26 0.6Q317.41 0.6 315.71-1.35 314.01-3.3 314.01-6.45L314.01-6.45 314.01-26.35 318.41-26.35 318.41-6.9Q318.41-2.85 321.26-2.85L321.26-2.85Q322.91-2.85 324.16-4.03 325.41-5.2 326.46-7.3L326.46-7.3 326.46-26.35 330.86-26.35ZM348.61-26.9Q352.41-26.9 354.53-23.45 356.66-20 356.66-13.2L356.66-13.2Q356.66-8.9 355.61-5.8 354.56-2.7 352.63-1.05 350.71 0.6 348.16 0.6L348.16 0.6Q346.46 0.6 344.96-0.28 343.46-1.15 342.36-2.75L342.36-2.75 342.06 0 338.16 0 338.16-36.9 342.56-37.35 342.56-23.15Q344.91-26.9 348.61-26.9L348.61-26.9ZM347.21-2.9Q352.01-2.9 352.01-13.2L352.01-13.2Q352.01-18.85 350.86-21.13 349.71-23.4 347.56-23.4L347.56-23.4Q344.76-23.4 342.56-19.35L342.56-19.35 342.56-6.3Q343.46-4.75 344.63-3.83 345.81-2.9 347.21-2.9L347.21-2.9Z" opacity="1" transform="matrix(1,0,0,1,0,0)" fill="#ffffff" class="wordmark-text-0" data-fill-palette-color="primary" id="text-0"></path></svg></g></svg></g><g transform="matrix(1,0,0,1,3.5,49.025751935679914)"><svg viewBox="0 0 309.416 21.43443657015838" height="21.43443657015838" width="309.416"><g transform="matrix(1,0,0,1,0,0)"><svg width="309.416" viewBox="-0.3999999999999999 -43.4 752.6899999999999 52.95" height="21.43443657015838" data-palette-color="#1f6133"><path d="M21.9-23L14.25-22.5Q15.4-25.45 16.45-28.3L16.45-28.3Q17.4-30.8 18.38-33.58 19.35-36.35 20-38.6L20-38.6Q21.3-38.65 22.33-38.73 23.35-38.8 24.3-38.9 25.25-39 26.25-39.13 27.25-39.25 28.5-39.4L28.5-39.4Q27.6-36.9 26.48-34.08 25.35-31.25 24.3-28.75L24.3-28.75Q23.1-25.9 21.9-23L21.9-23ZM10.65-22.95L3.6-22Q4.5-25.35 5.35-28.45L5.35-28.45Q5.7-29.8 6.1-31.23 6.5-32.65 6.88-34.05 7.25-35.45 7.55-36.73 7.85-38 8.1-39L8.1-39Q8.55-38.95 8.97-38.95 9.4-38.95 9.75-38.95L9.75-38.95Q11.6-38.95 13.25-39.05 14.9-39.15 16.85-39.15L16.85-39.15Q15.95-37.1 14.85-34.33 13.75-31.55 12.85-29L12.85-29Q11.7-26.05 10.65-22.95L10.65-22.95ZM60.85-19.05Q60.5-13.95 58.85-10.18 57.2-6.4 54.87-3.85 52.55-1.3 49.87-0.05 47.2 1.2 44.8 1.2L44.8 1.2Q42.95 1.2 41.27 0.4 39.6-0.4 38.37-2.02 37.15-3.65 36.45-6.1 35.75-8.55 35.75-11.85L35.75-11.85Q35.75-18.3 37.6-23.1 39.45-27.9 42.27-31.1 45.1-34.3 48.32-35.85 51.55-37.4 54.35-37.4L54.35-37.4Q56.35-37.4 57.82-36.7 59.3-36 60.25-34.83 61.2-33.65 61.62-32.08 62.05-30.5 62.05-28.75L62.05-28.75 55.2-27.45Q54.75-29.45 54-30.3 53.25-31.15 52.3-31.15L52.3-31.15Q51.05-31.15 49.55-29.38 48.05-27.6 46.75-24.8 45.45-22 44.55-18.65 43.65-15.3 43.55-12.05L43.55-12.05Q43.55-8.95 44.47-7.63 45.4-6.3 46.85-6.3L46.85-6.3Q47.85-6.3 48.92-6.8 50-7.3 50.85-8.22 51.7-9.15 52.27-10.38 52.85-11.6 52.9-13.05L52.9-13.05 47.55-12.25 48.5-17.2Q50.85-17.5 53.1-17.8L53.1-17.8Q55-18.05 57.12-18.4 59.25-18.75 60.85-19.05L60.85-19.05ZM79.49-2.05L71.39 0.05Q72.74-6.6 73.99-12.95L73.99-12.95Q74.44-15.65 74.99-18.57 75.54-21.5 76.02-24.38 76.49-27.25 76.92-29.93 77.34-32.6 77.59-34.8L77.59-34.8Q80.44-35.7 83.74-36.13 87.04-36.55 90.29-36.55L90.29-36.55Q92.24-36.55 93.52-36.1 94.79-35.65 95.52-34.83 96.24-34 96.54-32.9 96.84-31.8 96.84-30.45L96.84-30.45Q96.84-28.45 96.14-26.53 95.44-24.6 94.27-22.88 93.09-21.15 91.57-19.73 90.04-18.3 88.29-17.4L88.29-17.4Q89.19-15.4 90.22-13.03 91.24-10.65 92.14-8.5L92.14-8.5Q93.14-6 94.19-3.5L94.19-3.5 86.44-0.8Q85.44-4 84.64-6.8L84.64-6.8Q84.29-7.95 83.94-9.18 83.59-10.4 83.29-11.5 82.99-12.6 82.79-13.48 82.59-14.35 82.54-14.9L82.54-14.9 81.89-14.7Q81.59-13.1 81.17-10.95 80.74-8.8 80.39-6.8L80.39-6.8Q79.94-4.45 79.49-2.05L79.49-2.05ZM84.74-29.6L83.14-21.65Q84.09-21.75 85.47-22.45 86.84-23.15 88.09-24.13 89.34-25.1 90.24-26.15 91.14-27.2 91.14-28L91.14-28Q91.14-28.55 90.79-28.88 90.44-29.2 89.82-29.38 89.19-29.55 88.44-29.6 87.69-29.65 86.89-29.65L86.89-29.65Q86.34-29.65 85.77-29.63 85.19-29.6 84.74-29.6L84.74-29.6ZM133.99-27.05Q133.99-22.95 133.11-19.33 132.24-15.7 130.79-12.68 129.34-9.65 127.41-7.28 125.49-4.9 123.39-3.23 121.29-1.55 119.14-0.68 116.99 0.2 115.04 0.2L115.04 0.2Q113.39 0.2 112.04-0.43 110.69-1.05 109.69-2.27 108.69-3.5 108.11-5.43 107.54-7.35 107.54-10.05L107.54-10.05Q107.54-12.85 108.24-15.95 108.94-19.05 110.14-22.1 111.34-25.15 113.09-27.9 114.84-30.65 116.94-32.77 119.04-34.9 121.44-36.15 123.84-37.4 126.44-37.4L126.44-37.4Q128.69-37.4 130.16-36.48 131.64-35.55 132.46-34.08 133.29-32.6 133.64-30.75 133.99-28.9 133.99-27.05L133.99-27.05ZM114.99-11.35Q114.99-10.8 115.19-10.2 115.39-9.6 115.74-9.15 116.09-8.7 116.61-8.38 117.14-8.05 117.74-8.05L117.74-8.05Q119.99-8.05 121.74-9.6 123.49-11.15 124.64-13.4 125.79-15.65 126.41-18.2 127.04-20.75 127.04-22.85L127.04-22.85Q127.04-23.45 126.96-24.15 126.89-24.85 126.66-25.45 126.44-26.05 125.96-26.48 125.49-26.9 124.69-26.9L124.69-26.9Q123.09-26.9 121.74-26.1 120.39-25.3 119.31-23.98 118.24-22.65 117.44-20.98 116.64-19.3 116.06-17.57 115.49-15.85 115.24-14.2 114.99-12.55 114.99-11.35L114.99-11.35ZM155.68-1.65L145.28 0.2 149.08-35.3Q151.43-35.4 153.51-35.77 155.58-36.15 157.63-36.3L157.63-36.3Q157.63-36.25 157.48-35.27 157.33-34.3 157.08-32.73 156.83-31.15 156.53-29.18 156.23-27.2 155.66-23.75 155.08-20.3 154.13-14.2L154.13-14.2 154.88-14.2Q156.18-18.8 157.03-21.73 157.88-24.65 158.41-26.48 158.93-28.3 159.41-30 159.88-31.7 160.31-33.15 160.73-34.6 160.98-35.6L160.98-35.6 161.43-35.6Q162.33-35.6 163.26-35.7 164.18-35.8 165.01-35.93 165.83-36.05 166.73-36.25L166.73-36.25Q166.63-35.8 166.51-34.4 166.38-33 166.18-31.03 165.98-29.05 165.78-26.68 165.58-24.3 165.38-22.03 165.18-19.75 165.01-17.7 164.83-15.65 164.68-14.2L164.68-14.2 165.58-14.2 170.33-35.7Q172.03-35.95 173.68-36.15L173.68-36.15Q175.13-36.35 176.68-36.55 178.23-36.75 179.43-37L179.43-37Q178.68-34.9 177.93-32.33 177.18-29.75 176.38-26.9 175.58-24.05 174.86-21.15 174.13-18.25 173.43-15.55L173.43-15.55Q171.83-9.15 170.33-2.4L170.33-2.4 159.03-0.5 161.23-19.8 160.63-19.8 155.68-1.65ZM192.03 5.55L184.18 5.55Q184.58 3.55 185.03 1.48 185.48-0.6 185.88-2.53 186.28-4.45 186.6-6.1 186.93-7.75 187.08-9L187.08-9Q187.48-9 188.35-8.97 189.23-8.95 189.68-8.95L189.68-8.95Q190.38-8.95 191.5-8.95 192.63-8.95 193.75-9 194.88-9.05 196.13-9.1L196.13-9.1Q195.73-7.25 195.05-4.73 194.38-2.2 193.63 0.3 192.88 2.8 192.03 5.55L192.03 5.55ZM252.02-10.75Q250.82-8 249.34-5.98 247.87-3.95 246.24-2.58 244.62-1.2 242.97-0.55 241.32 0.1 239.77 0.1L239.77 0.1Q238.22 0.1 236.94-0.6 235.67-1.3 234.72-2.7 233.77-4.1 233.19-6.15 232.62-8.2 232.62-10.95L232.62-10.95Q232.62-15.65 233.92-20.23 235.22-24.8 237.57-28.45 239.92-32.1 243.14-34.33 246.37-36.55 250.27-36.55L250.27-36.55Q251.47-36.55 252.57-36.05 253.67-35.55 254.47-34.65 255.27-33.75 255.74-32.45 256.22-31.15 256.22-29.55L256.22-29.55Q256.22-29.25 256.22-28.93 256.22-28.6 256.17-28.25L256.17-28.25 249.62-26.5Q249.02-27.75 248.22-27.75L248.22-27.75Q247.42-27.75 246.54-26.83 245.67-25.9 244.82-24.43 243.97-22.95 243.17-21.13 242.37-19.3 241.77-17.45 241.17-15.6 240.79-13.93 240.42-12.25 240.42-11.2L240.42-11.2Q240.42-9.6 240.84-8.95 241.27-8.3 241.97-8.3L241.97-8.3Q242.52-8.3 243.22-8.72 243.92-9.15 244.52-9.83 245.12-10.5 245.62-11.35 246.12-12.2 246.32-13.05L246.32-13.05 252.02-10.75ZM291.96-27.05Q291.96-22.95 291.09-19.33 290.21-15.7 288.76-12.68 287.31-9.65 285.39-7.28 283.46-4.9 281.36-3.23 279.26-1.55 277.11-0.68 274.96 0.2 273.01 0.2L273.01 0.2Q271.36 0.2 270.01-0.43 268.66-1.05 267.66-2.27 266.66-3.5 266.09-5.43 265.51-7.35 265.51-10.05L265.51-10.05Q265.51-12.85 266.21-15.95 266.91-19.05 268.11-22.1 269.31-25.15 271.06-27.9 272.81-30.65 274.91-32.77 277.01-34.9 279.41-36.15 281.81-37.4 284.41-37.4L284.41-37.4Q286.66-37.4 288.14-36.48 289.61-35.55 290.44-34.08 291.26-32.6 291.61-30.75 291.96-28.9 291.96-27.05L291.96-27.05ZM272.96-11.35Q272.96-10.8 273.16-10.2 273.36-9.6 273.71-9.15 274.06-8.7 274.59-8.38 275.11-8.05 275.71-8.05L275.71-8.05Q277.96-8.05 279.71-9.6 281.46-11.15 282.61-13.4 283.76-15.65 284.39-18.2 285.01-20.75 285.01-22.85L285.01-22.85Q285.01-23.45 284.94-24.15 284.86-24.85 284.64-25.45 284.41-26.05 283.94-26.48 283.46-26.9 282.66-26.9L282.66-26.9Q281.06-26.9 279.71-26.1 278.36-25.3 277.29-23.98 276.21-22.65 275.41-20.98 274.61-19.3 274.04-17.57 273.46-15.85 273.21-14.2 272.96-12.55 272.96-11.35L272.96-11.35ZM308.76-1.45L301.46 0.25Q302.96-6.95 304.31-13.7L304.31-13.7Q304.81-16.6 305.38-19.7 305.96-22.8 306.46-25.83 306.96-28.85 307.36-31.63 307.76-34.4 307.96-36.65L307.96-36.65Q308.61-36.6 309.06-36.6 309.51-36.6 310.11-36.6L310.11-36.6Q310.81-36.6 311.81-36.63 312.81-36.65 313.81-36.7 314.81-36.75 315.96-36.8L315.96-36.8Q316.66-33.3 317.21-30.05L317.21-30.05Q317.76-27.2 318.33-24.2 318.91-21.2 319.36-19.1L319.36-19.1Q319.56-20.1 319.81-21.43 320.06-22.75 320.36-24.2 320.66-25.65 320.93-27.13 321.21-28.6 321.51-30.05L321.51-30.05Q322.21-33.3 322.96-36.75L322.96-36.75 329.06-37.5Q327.36-29.85 326.06-23L326.06-23Q325.46-20.05 324.88-17.03 324.31-14 323.81-11.23 323.31-8.45 322.96-6.08 322.61-3.7 322.41-2.1L322.41-2.1Q322.26-2.1 321.23-1.88 320.21-1.65 318.88-1.35 317.56-1.05 316.23-0.75 314.91-0.45 314.26-0.2L314.26-0.2Q313.96-4.2 313.61-7.8L313.61-7.8Q313.46-9.35 313.28-10.98 313.11-12.6 312.91-14.1 312.71-15.6 312.51-16.9 312.31-18.2 312.11-19.15L312.11-19.15Q311.96-18.2 311.71-16.95 311.46-15.7 311.21-14.3 310.96-12.9 310.71-11.38 310.46-9.85 310.16-8.45L310.16-8.45Q309.51-5.1 308.76-1.45L308.76-1.45ZM343.95-1.45L336.65 0.25Q338.15-6.95 339.5-13.7L339.5-13.7Q340-16.6 340.58-19.7 341.15-22.8 341.65-25.83 342.15-28.85 342.55-31.63 342.95-34.4 343.15-36.65L343.15-36.65Q343.8-36.6 344.25-36.6 344.7-36.6 345.3-36.6L345.3-36.6Q346-36.6 347-36.63 348-36.65 349-36.7 350-36.75 351.15-36.8L351.15-36.8Q351.85-33.3 352.4-30.05L352.4-30.05Q352.95-27.2 353.53-24.2 354.1-21.2 354.55-19.1L354.55-19.1Q354.75-20.1 355-21.43 355.25-22.75 355.55-24.2 355.85-25.65 356.13-27.13 356.4-28.6 356.7-30.05L356.7-30.05Q357.4-33.3 358.15-36.75L358.15-36.75 364.25-37.5Q362.55-29.85 361.25-23L361.25-23Q360.65-20.05 360.08-17.03 359.5-14 359-11.23 358.5-8.45 358.15-6.08 357.8-3.7 357.6-2.1L357.6-2.1Q357.45-2.1 356.43-1.88 355.4-1.65 354.08-1.35 352.75-1.05 351.43-0.75 350.1-0.45 349.45-0.2L349.45-0.2Q349.15-4.2 348.8-7.8L348.8-7.8Q348.65-9.35 348.48-10.98 348.3-12.6 348.1-14.1 347.9-15.6 347.7-16.9 347.5-18.2 347.3-19.15L347.3-19.15Q347.15-18.2 346.9-16.95 346.65-15.7 346.4-14.3 346.15-12.9 345.9-11.38 345.65-9.85 345.35-8.45L345.35-8.45Q344.7-5.1 343.95-1.45L343.95-1.45ZM388.15-2.45L372 0.05 378.55-35.5 394.35-36.85Q394-35.75 393.75-34.6L393.75-34.6Q393.5-33.65 393.27-32.63 393.05-31.6 392.9-30.8L392.9-30.8Q392.4-30.75 391.47-30.73 390.55-30.7 389.5-30.68 388.45-30.65 387.37-30.65 386.3-30.65 385.5-30.65L385.5-30.65 383.75-21.7Q385.3-21.8 386.65-21.85L386.65-21.85Q387.75-21.9 388.9-21.9 390.05-21.9 390.6-21.95L390.6-21.95Q390.4-20.55 390.22-19.2 390.05-17.85 389.8-16.45L389.8-16.45Q389.3-16.4 388.17-16.38 387.05-16.35 385.9-16.3L385.9-16.3Q384.6-16.25 383.05-16.2L383.05-16.2 381.35-7 388.65-8.15 388.15-2.45ZM422.59-10.75Q421.39-8 419.92-5.98 418.44-3.95 416.82-2.58 415.19-1.2 413.54-0.55 411.89 0.1 410.34 0.1L410.34 0.1Q408.79 0.1 407.52-0.6 406.24-1.3 405.29-2.7 404.34-4.1 403.77-6.15 403.19-8.2 403.19-10.95L403.19-10.95Q403.19-15.65 404.49-20.23 405.79-24.8 408.14-28.45 410.49-32.1 413.72-34.33 416.94-36.55 420.84-36.55L420.84-36.55Q422.04-36.55 423.14-36.05 424.24-35.55 425.04-34.65 425.84-33.75 426.32-32.45 426.79-31.15 426.79-29.55L426.79-29.55Q426.79-29.25 426.79-28.93 426.79-28.6 426.74-28.25L426.74-28.25 420.19-26.5Q419.59-27.75 418.79-27.75L418.79-27.75Q417.99-27.75 417.12-26.83 416.24-25.9 415.39-24.43 414.54-22.95 413.74-21.13 412.94-19.3 412.34-17.45 411.74-15.6 411.37-13.93 410.99-12.25 410.99-11.2L410.99-11.2Q410.99-9.6 411.42-8.95 411.84-8.3 412.54-8.3L412.54-8.3Q413.09-8.3 413.79-8.72 414.49-9.15 415.09-9.83 415.69-10.5 416.19-11.35 416.69-12.2 416.89-13.05L416.89-13.05 422.59-10.75ZM448.04-1.35L439.04 0.05Q440.19-5.45 441.24-10.8L441.24-10.8Q441.69-13.05 442.14-15.5 442.59-17.95 443.01-20.33 443.44-22.7 443.76-24.93 444.09-27.15 444.34-29L444.34-29Q443.19-29.15 442.01-29.1 440.84-29.05 439.69-29.4L439.69-29.4Q439.74-30.2 439.74-31.25 439.74-32.3 439.79-33.35L439.79-33.35Q439.84-34.5 439.89-35.8L439.89-35.8Q441.19-35.7 442.49-35.65 443.79-35.6 445.09-35.6L445.09-35.6Q447.64-35.6 450.01-35.73 452.39-35.85 454.41-36.02 456.44-36.2 458.39-36.45L458.39-36.45 457.84-33.75Q457.59-32.6 457.36-31.4 457.14-30.2 456.94-29.35L456.94-29.35Q455.84-29.05 454.71-28.93 453.59-28.8 452.49-28.6L452.49-28.6Q452.14-26.9 451.74-24.83 451.34-22.75 450.96-20.53 450.59-18.3 450.24-16 449.89-13.7 449.54-11.6L449.54-11.6Q448.74-6.65 448.04-1.35L448.04-1.35ZM471.38 5.55L463.53 5.55Q463.93 3.55 464.38 1.48 464.83-0.6 465.23-2.53 465.63-4.45 465.96-6.1 466.28-7.75 466.43-9L466.43-9Q466.83-9 467.71-8.97 468.58-8.95 469.03-8.95L469.03-8.95Q469.73-8.95 470.86-8.95 471.98-8.95 473.11-9 474.23-9.05 475.48-9.1L475.48-9.1Q475.08-7.25 474.41-4.73 473.73-2.2 472.98 0.3 472.23 2.8 471.38 5.55L471.38 5.55ZM523.52-1.35L514.52 0.05Q515.67-5.45 516.72-10.8L516.72-10.8Q517.17-13.05 517.62-15.5 518.07-17.95 518.5-20.33 518.92-22.7 519.25-24.93 519.57-27.15 519.82-29L519.82-29Q518.67-29.15 517.5-29.1 516.32-29.05 515.17-29.4L515.17-29.4Q515.22-30.2 515.22-31.25 515.22-32.3 515.27-33.35L515.27-33.35Q515.32-34.5 515.37-35.8L515.37-35.8Q516.67-35.7 517.97-35.65 519.27-35.6 520.57-35.6L520.57-35.6Q523.12-35.6 525.5-35.73 527.87-35.85 529.9-36.02 531.92-36.2 533.87-36.45L533.87-36.45 533.32-33.75Q533.07-32.6 532.85-31.4 532.62-30.2 532.42-29.35L532.42-29.35Q531.32-29.05 530.2-28.93 529.07-28.8 527.97-28.6L527.97-28.6Q527.62-26.9 527.22-24.83 526.82-22.75 526.45-20.53 526.07-18.3 525.72-16 525.37-13.7 525.02-11.6L525.02-11.6Q524.22-6.65 523.52-1.35L523.52-1.35ZM548.82-1.5L541.12 0.1Q542.52-6.9 543.82-13.55L543.82-13.55Q544.32-16.4 544.87-19.48 545.42-22.55 545.89-25.55 546.37-28.55 546.79-31.38 547.22-34.2 547.47-36.5L547.47-36.5Q548.62-36.45 549.59-36.38 550.57-36.3 551.52-36.25 552.47-36.2 553.44-36.18 554.42-36.15 555.57-36.15L555.57-36.15Q554.72-32.6 553.89-29.05 553.07-25.5 552.37-21.9L552.37-21.9 557.32-22.45Q558.02-26 558.57-29.33 559.12-32.65 560.02-36.2L560.02-36.2Q561.17-36.4 562.57-36.52 563.97-36.65 565.17-36.75 566.37-36.85 567.19-36.93 568.02-37 568.02-37L568.02-37Q567.32-34.75 566.69-32.08 566.07-29.4 565.47-26.53 564.87-23.65 564.32-20.7 563.77-17.75 563.32-15.1L563.32-15.1Q562.22-8.75 561.27-2.1L561.27-2.1 553.47-1.2Q554.12-4.2 554.62-7.05L554.62-7.05Q555.12-9.45 555.64-12.05 556.17-14.65 556.47-16.5L556.47-16.5 551.62-16.05Q551.27-14.15 550.79-11.65 550.32-9.15 549.92-6.9L549.92-6.9Q549.37-4.2 548.82-1.5L548.82-1.5ZM583.66-2.05L575.56 0.05Q576.91-6.6 578.16-12.95L578.16-12.95Q578.61-15.65 579.16-18.57 579.71-21.5 580.19-24.38 580.66-27.25 581.09-29.93 581.51-32.6 581.76-34.8L581.76-34.8Q584.61-35.7 587.91-36.13 591.21-36.55 594.46-36.55L594.46-36.55Q596.41-36.55 597.69-36.1 598.96-35.65 599.69-34.83 600.41-34 600.71-32.9 601.01-31.8 601.01-30.45L601.01-30.45Q601.01-28.45 600.31-26.53 599.61-24.6 598.44-22.88 597.26-21.15 595.74-19.73 594.21-18.3 592.46-17.4L592.46-17.4Q593.36-15.4 594.39-13.03 595.41-10.65 596.31-8.5L596.31-8.5Q597.31-6 598.36-3.5L598.36-3.5 590.61-0.8Q589.61-4 588.81-6.8L588.81-6.8Q588.46-7.95 588.11-9.18 587.76-10.4 587.46-11.5 587.16-12.6 586.96-13.48 586.76-14.35 586.71-14.9L586.71-14.9 586.06-14.7Q585.76-13.1 585.34-10.95 584.91-8.8 584.56-6.8L584.56-6.8Q584.11-4.45 583.66-2.05L583.66-2.05ZM588.91-29.6L587.31-21.65Q588.26-21.75 589.64-22.45 591.01-23.15 592.26-24.13 593.51-25.1 594.41-26.15 595.31-27.2 595.31-28L595.31-28Q595.31-28.55 594.96-28.88 594.61-29.2 593.99-29.38 593.36-29.55 592.61-29.6 591.86-29.65 591.06-29.65L591.06-29.65Q590.51-29.65 589.94-29.63 589.36-29.6 588.91-29.6L588.91-29.6ZM618.66-1Q618.21-1 616.88-0.88 615.56-0.75 614.16-0.58 612.76-0.4 611.63-0.25 610.51-0.1 610.41-0.05L610.41-0.05Q610.91-2.2 611.43-4.83 611.96-7.45 612.51-10.33 613.06-13.2 613.56-16.15 614.06-19.1 614.51-21.85L614.51-21.85Q615.56-28.25 616.61-35L616.61-35 624.41-36.25Q623.26-29.55 622.16-23.1L622.16-23.1Q621.71-20.35 621.23-17.4 620.76-14.45 620.28-11.55 619.81-8.65 619.41-5.93 619.01-3.2 618.66-1L618.66-1ZM648.75-1.5L635.8 0.45Q636.45-6.55 637-13.3L637-13.3Q637.25-16.1 637.48-19.2 637.7-22.3 637.88-25.33 638.05-28.35 638.15-31.18 638.25-34 638.3-36.35L638.3-36.35Q639.5-36.35 640.88-36.4 642.25-36.45 643.38-36.5 644.5-36.55 645.3-36.63 646.1-36.7 646.1-36.7L646.1-36.7Q645.55-30.9 645.15-27.18 644.75-23.45 644.53-21.13 644.3-18.8 644.13-16.65 643.95-14.5 643.75-12.65 643.55-10.8 643.4-9.5L643.4-9.5 644.3-9.5 649.9-36.1Q651.25-36.15 652.65-36.25L652.65-36.25Q653.9-36.35 655.28-36.4 656.65-36.45 657.8-36.6L657.8-36.6Q657.1-34.4 656.38-31.75 655.65-29.1 654.88-26.25 654.1-23.4 653.38-20.45 652.65-17.5 651.95-14.75L651.95-14.75Q650.35-8.3 648.75-1.5L648.75-1.5ZM680.95-2.45L664.8 0.05 671.35-35.5 687.15-36.85Q686.8-35.75 686.55-34.6L686.55-34.6Q686.3-33.65 686.07-32.63 685.85-31.6 685.7-30.8L685.7-30.8Q685.2-30.75 684.27-30.73 683.35-30.7 682.3-30.68 681.25-30.65 680.17-30.65 679.1-30.65 678.3-30.65L678.3-30.65 676.55-21.7Q678.1-21.8 679.45-21.85L679.45-21.85Q680.55-21.9 681.7-21.9 682.85-21.9 683.4-21.95L683.4-21.95Q683.2-20.55 683.02-19.2 682.85-17.85 682.6-16.45L682.6-16.45Q682.1-16.4 680.97-16.38 679.85-16.35 678.7-16.3L678.7-16.3Q677.4-16.25 675.85-16.2L675.85-16.2 674.15-7 681.45-8.15 680.95-2.45ZM704.14-11.85Q702.69-11.85 701.24-11.75 699.79-11.65 698.34-11.55L698.34-11.55Q699.89-17.7 701.37-23.8 702.84-29.9 704.44-36.05L704.44-36.05Q705.39-36.2 706.62-36.35 707.84-36.5 709.09-36.7 710.34-36.9 711.52-37.05 712.69-37.2 713.49-37.35L713.49-37.35Q710.79-31.05 708.57-24.68 706.34-18.3 704.14-11.85L704.14-11.85ZM704.64-4Q704.64-3.05 704.22-2.1 703.79-1.15 702.99-0.43 702.19 0.3 700.99 0.73 699.79 1.15 698.24 1.15L698.24 1.15Q697.19 1.15 696.34 0.75 695.49 0.35 694.97-0.33 694.44-1 694.14-1.85 693.84-2.7 693.84-3.55L693.84-3.55Q693.84-4.5 694.14-5.38 694.44-6.25 695.07-6.93 695.69-7.6 696.62-8.05 697.54-8.5 698.84-8.5L698.84-8.5Q701.74-8.5 703.19-7.13 704.64-5.75 704.64-4L704.64-4ZM741.69-23L734.04-22.5Q735.19-25.45 736.24-28.3L736.24-28.3Q737.19-30.8 738.16-33.58 739.14-36.35 739.79-38.6L739.79-38.6Q741.09-38.65 742.11-38.73 743.14-38.8 744.09-38.9 745.04-39 746.04-39.13 747.04-39.25 748.29-39.4L748.29-39.4Q747.39-36.9 746.26-34.08 745.14-31.25 744.09-28.75L744.09-28.75Q742.89-25.9 741.69-23L741.69-23ZM730.44-22.95L723.39-22Q724.29-25.35 725.14-28.45L725.14-28.45Q725.49-29.8 725.89-31.23 726.29-32.65 726.66-34.05 727.04-35.45 727.34-36.73 727.64-38 727.89-39L727.89-39Q728.34-38.95 728.76-38.95 729.19-38.95 729.54-38.95L729.54-38.95Q731.39-38.95 733.04-39.05 734.69-39.15 736.64-39.15L736.64-39.15Q735.74-37.1 734.64-34.33 733.54-31.55 732.64-29L732.64-29Q731.49-26.05 730.44-22.95L730.44-22.95Z" opacity="1" transform="matrix(1,0,0,1,0,0)" fill="#ffffff" class="slogan-text-1" data-fill-palette-color="secondary" id="text-1"></path></svg></g></svg></g></svg></g></svg></g></svg></g></svg></g></svg></g><g mask="url(#9d52d4b3-684e-4f4b-9864-037c4bbe7afa)"><g transform="matrix(3.4219691220670283, 0, 0, 3.4219691220670283, 36.72330410593352, 1)"><svg xmlns="http://www.w3.org/2000/svg" xmlns:xlink="http://www.w3.org/1999/xlink" version="1.1" x="0" y="0" viewBox="2.8806843956599937 16.414 94.11931560434 71.65465007232088" enable-background="new 0 0 100 100" xml:space="preserve" height="71.65465007232088" width="94.11931560434" class="icon-none" data-fill-palette-color="accent" id="none"><g fill="#33b56b" data-fill-palette-color="accent"><path d="M20.195 59.774c0.762 1.021 4.647 6.239 5.83 7.83 0.026 0.011 4.347 1.887 6.486 2.82-1.279-4.967-2.555-9.936-3.831-14.902-1.489-5.788-10.433-3.329-8.942 2.466C19.89 58.582 20.045 59.179 20.195 59.774z" fill="#ffffff" data-fill-palette-color="accent"></path><path d="M79.412 55c-0.058-1-0.522-1.982-1.593-2.814-6.216-4.833-12.52-5.931-20.213-4.601-6.799 1.175-9.764 6.705-16.675 6.365-5.979-0.297-5.951 8.974 0 9.27 8.036 0.397 14.62-6.342 21.636-7.158-6.956 5.168-18.876 16.257-22.424 19.59-5.125-2.231-15.418-6.71-15.442-6.72-1.185-1.589-7.565-10.162-9.57-12.857-3.525-4.739-11.581-0.123-8.006 4.679 0.493 0.661 15.576 10.68 21.435 14.638 0.066 0.002 0.717 0.751 1.372 1.498-0.76-0.049-2.565-0.168-2.696-0.172-5.859-3.959-11.716-7.918-17.575-11.878-4.97-3.358-9.604 4.68-4.681 8.007 5.901 3.988 11.801 7.974 17.701 11.961 2.084 1.406 4.708 1.18 7.132 1.333 5.888 0.373 11.884 0.7 17.668 1.908 0.245 0.053 1.019-0.018 1.049-0.018C54.754 88.029 81 71 81 71h16V55H79.412z" fill="#ffffff" data-fill-palette-color="accent"></path><path d="M36 63.165v9.58l3.526 1.062L42 72.093v-7.06C38 64.887 36 63.165 36 63.165z" fill="#ffffff" data-fill-palette-color="accent"></path><path d="M42 52.111V34h-6v19.685C36 53.685 38 52.123 42 52.111z" fill="#ffffff" data-fill-palette-color="accent"></path><path d="M51.938 24.307c-14.778 0.923-9.5 9.5-9.5 9.5C51.476 38.359 51.938 24.307 51.938 24.307z" fill="#ffffff" data-fill-palette-color="accent"></path><path d="M26.226 16.414c-3.572 20.845 10.085 16.327 10.085 16.327C45.607 21.672 26.226 16.414 26.226 16.414z" fill="#ffffff" data-fill-palette-color="accent"></path></g></svg></g></g></svg></g><defs></defs></svg><rect width="395.52" height="247.2" fill="none" stroke="none" visibility="hidden"></rect></g></svg></g></svg>